{"glyphs":{"$":{"x_min":0,"x_max":506,"ha":506,"o":"m 361 746 q 385 727 402 700 q 418 674 424 644 q 431 613 426 582 q 421 561 382 534 q 343 508 341 526 q 341 529 342 533 q 349 568 334 601 q 313 484 302 421 q 342 357 375 289 q 394 248 402 216 q 410 184 402 147 q 394 110 364 81 q 313 28 239 37 q 218 -100 213 -134 q 211 -152 179 -173 q 150 -192 149 -174 q 149 -173 150 -171 q 163 -83 183 49 q 114 74 55 119 q 43 127 58 150 q 72 174 96 190 q 120 205 134 196 q 165 173 200 154 q 214 244 230 333 q 219 350 197 382 q 175 414 158 440 q 142 465 124 496 q 107 526 98 556 q 88 586 87 613 q 86 676 144 733 q 203 790 266 788 q 289 786 310 777 q 313 793 318 818 q 323 842 327 864 q 331 885 335 904 q 338 921 370 942 q 399 960 398 944 q 398 942 398 941 q 386 879 361 746 z m 203 588 q 223 547 257 492 q 278 610 288 664 q 274 677 257 687 q 220 706 202 703 q 183 700 181 680 q 179 659 186 635 q 192 611 203 588 z m 317 154 q 303 209 274 257 q 272 243 268 218 q 264 192 260 171 q 257 150 254 131 q 274 124 286 121 q 319 113 322 116 q 325 119 317 154 z"},"?":{"x_min":0,"x_max":606,"ha":606,"o":"m 539 929 q 557 880 556 840 q 556 799 540 758 q 525 717 499 682 q 473 647 442 610 q 410 573 377 540 q 344 507 314 469 q 284 431 261 395 q 238 359 228 316 q 217 274 222 232 q 225 208 185 177 q 149 149 139 162 q 138 164 137 167 q 130 222 142 273 q 153 324 186 376 q 219 427 244 458 q 269 489 318 543 q 342 569 353 582 q 379 611 398 635 q 416 659 436 694 q 456 730 464 760 q 471 791 466 826 q 461 862 438 892 q 414 926 368 944 q 321 961 274 960 q 227 958 186 934 q 145 911 131 868 q 125 847 89 825 q 52 802 50 823 q 50 829 52 837 q 66 881 102 922 q 138 962 184 990 q 230 1019 284 1034 q 337 1048 386 1045 q 434 1042 476 1012 q 517 983 539 929 z m 180 123 q 189 130 204 130 q 220 130 216 114 q 203 76 214 37 q 225 14 187 -21 q 154 -50 138 -44 l 134 -40 q 114 12 132 65 q 144 104 180 123 z"},"a":{"x_min":0,"x_max":523,"ha":523,"o":"m 570 282 q 579 272 569 255 q 559 238 547 227 q 546 226 543 223 q 346 45 312 168 q 303 199 301 231 q 287 209 272 189 q 239 148 198 115 q 157 82 119 83 q 91 84 64 114 q 38 143 22 177 q -3 228 6 286 q 14 343 40 392 q 67 441 108 483 q 174 550 223 543 q 268 536 318 459 q 326 486 331 511 q 333 523 357 496 q 389 459 385 437 q 384 436 384 435 q 384 434 384 434 l 384 433 q 385 339 390 278 q 390 276 391 266 q 392 256 392 252 q 393 247 394 238 q 396 229 398 224 q 401 218 405 212 q 409 207 414 204 q 422 201 428 200 q 435 199 444 204 q 454 209 460 213 q 467 217 476 225 q 486 233 492 238 q 497 243 504 250 q 512 257 515 260 q 555 297 570 282 z m 125 185 q 242 246 304 417 q 300 422 297 427 q 282 451 261 456 q 240 460 220 451 q 200 442 178 424 q 157 405 142 387 q 127 369 115 351 q 84 306 67 243 q 47 169 89 173 q 104 174 125 185 z"},"L":{"x_min":0,"x_max":978,"ha":978,"o":"m 1554 -46 q 1577 -37 1575 -53 q 1572 -77 1540 -110 q 1529 -121 1521 -124 q 1427 -165 1323 -184 q 1219 -203 1118 -202 q 1018 -200 912 -182 q 805 -164 707 -134 q 609 -104 510 -62 q 361 -171 192 -75 q 162 -57 134 -32 q 105 -7 80 26 q 56 59 48 94 q 39 130 49 168 q 58 211 96 234 q 133 256 176 244 q 198 238 226 219 q 255 200 286 176 q 318 152 334 143 q 430 87 532 41 q 533 40 534 40 q 536 39 537 39 q 559 65 578 95 q 629 178 676 274 q 724 371 760 456 q 795 540 833 656 q 871 773 894 850 q 917 927 950 1057 q 983 1187 998 1252 q 1013 1316 1044 1451 q 1049 1473 1088 1499 q 1128 1525 1130 1507 q 1130 1504 1129 1500 q 1061 1208 960 881 q 954 861 928 773 q 902 685 884 626 q 866 567 831 470 q 796 372 764 300 q 731 228 686 149 q 640 70 593 15 q 722 -38 858 -72 q 1263 -171 1554 -46 z m 243 20 q 359 -61 443 -32 q 378 -2 321 29 q 253 65 188 107 q 181 111 168 120 q 156 128 153 130 q 183 63 243 20 z"},"J":{"x_min":0,"x_max":975,"ha":975,"o":"m 1090 601 q 1105 603 1104 591 q 1101 569 1068 537 q 1050 520 1038 518 q 971 507 896 490 q 825 196 693 -77 q 680 -105 666 -132 q 653 -158 628 -202 q 604 -246 581 -284 q 558 -322 526 -366 q 494 -409 464 -442 q 434 -474 398 -501 q 362 -528 328 -540 q 294 -552 257 -547 q 220 -542 186 -517 q 141 -483 109 -424 q 77 -364 64 -298 q 50 -231 50 -164 q 50 -97 64 -44 q 117 161 353 324 q 573 472 828 542 q 871 757 837 974 q 832 1001 824 1027 q 817 1053 806 1079 q 794 1105 780 1127 q 766 1149 746 1168 q 727 1187 705 1199 q 683 1211 655 1216 q 627 1220 596 1216 q 437 1193 257 940 q 242 917 205 904 q 177 894 179 909 q 180 916 190 930 q 386 1207 586 1281 q 654 1305 710 1297 q 766 1289 809 1254 q 852 1218 880 1166 q 907 1113 920 1049 q 962 806 911 565 q 1002 587 1090 601 z m 687 63 q 765 261 813 469 q 598 412 406 299 q 161 151 138 -54 q 131 -115 142 -190 q 152 -266 186 -340 q 220 -413 271 -444 q 297 -460 324 -461 q 352 -462 378 -448 q 404 -433 429 -412 q 454 -392 478 -357 q 503 -322 524 -290 q 545 -259 566 -214 q 588 -170 603 -139 q 618 -108 636 -65 q 654 -22 662 -2 q 669 18 681 48 q 685 59 687 63 z"},"V":{"x_min":0,"x_max":1849,"ha":1849,"o":"m 2039 1388 q 2046 1372 2046 1349 q 2046 1326 2040 1300 q 2035 1274 2026 1246 q 2018 1219 2006 1190 q 1995 1162 1985 1138 q 1975 1115 1965 1091 q 1955 1067 1951 1055 q 1836 740 1681 409 q 1677 399 1658 355 q 1638 311 1618 266 q 1599 222 1568 160 q 1538 99 1509 46 q 1480 -6 1444 -58 q 1409 -111 1376 -146 q 1344 -180 1310 -196 q 1275 -213 1245 -202 q 1230 -197 1220 -184 q 1210 -171 1207 -152 q 1204 -132 1203 -112 q 1202 -93 1205 -68 q 1208 -43 1210 -26 q 1213 -8 1217 13 q 1221 34 1222 40 q 1235 131 1271 316 q 1307 501 1321 597 q 1322 607 1325 628 q 1336 697 1341 735 q 1346 773 1351 841 q 1356 909 1354 956 q 1351 1003 1340 1060 q 1329 1116 1308 1161 q 1285 1211 1248 1241 q 1210 1271 1165 1279 q 1120 1287 1072 1284 q 1024 1281 972 1265 q 921 1249 878 1230 q 835 1211 793 1187 q 596 1076 442 908 q 289 741 194 534 q 148 429 138 314 q 128 199 155 87 q 156 86 156 84 q 160 68 163 58 q 166 47 174 27 q 181 7 188 -5 q 196 -17 208 -26 q 219 -35 231 -33 q 246 -30 244 -42 q 242 -65 208 -97 q 191 -114 179 -116 q 138 -122 110 -88 q 81 -53 69 0 q 57 53 52 116 q 48 180 50 227 q 52 274 56 302 q 100 610 421 948 q 460 989 515 1038 q 570 1088 647 1146 q 724 1205 804 1255 q 883 1305 970 1339 q 1056 1373 1131 1381 q 1206 1389 1273 1357 q 1340 1325 1382 1249 q 1404 1209 1417 1158 q 1430 1107 1434 1064 q 1438 1022 1436 960 q 1434 897 1431 863 q 1428 829 1421 766 q 1411 675 1394 576 q 1378 477 1354 349 q 1329 221 1318 161 q 1315 146 1310 118 q 1304 90 1300 72 q 1297 53 1292 24 q 1288 -5 1289 -22 q 1290 -39 1293 -66 q 1294 -71 1295 -80 q 1300 -107 1305 -110 q 1310 -113 1334 -102 q 1352 -95 1373 -66 q 1394 -38 1408 -10 q 1422 17 1440 54 q 1458 91 1464 101 q 1526 214 1602 378 q 1742 677 1854 975 q 1858 988 1869 1012 q 1880 1037 1891 1062 q 1902 1086 1915 1118 q 1928 1149 1937 1176 q 1946 1202 1954 1232 q 1961 1262 1960 1282 q 1960 1303 1954 1323 q 1945 1342 1980 1373 q 2014 1404 2032 1395 q 2037 1393 2039 1388 z"},"S":{"x_min":0,"x_max":1183,"ha":1183,"o":"m 1019 413 q 1074 327 1086 228 q 1099 130 1072 40 q 1046 -50 986 -130 q 926 -209 839 -263 q 725 -333 586 -334 q 447 -334 324 -270 q 200 -207 125 -97 q 68 -14 55 76 q 42 165 66 244 q 89 324 140 402 q 192 481 255 544 q 318 606 393 661 q 431 688 435 666 q 439 645 415 618 l 403 608 q 343 564 294 515 q 245 466 206 406 q 166 345 148 284 q 130 222 138 152 q 145 81 183 12 q 246 -92 347 -160 q 448 -227 568 -245 q 670 -261 762 -232 q 853 -204 918 -132 q 983 -61 1004 41 q 1045 238 852 451 q 691 616 501 746 q 482 760 432 794 q 382 828 354 849 q 326 870 290 904 q 254 939 233 972 q 179 1061 200 1152 q 221 1244 285 1319 q 349 1394 433 1433 q 570 1497 682 1462 q 795 1428 872 1332 q 950 1235 980 1101 q 985 1079 947 1048 q 911 1019 898 1030 q 896 1033 895 1036 q 881 1097 858 1152 q 834 1206 798 1254 q 762 1303 718 1336 q 674 1369 615 1383 q 556 1397 491 1386 q 438 1376 394 1349 q 350 1322 324 1283 q 298 1244 288 1200 q 277 1155 290 1106 q 303 1058 340 1016 q 393 953 469 892 q 545 830 618 780 q 691 729 764 676 q 837 623 905 556 q 973 488 1019 413 z"},"Z":{"x_min":0,"x_max":1206,"ha":1206,"o":"m 898 48 q 937 56 961 60 q 985 64 1024 66 q 1062 67 1088 62 q 1114 56 1143 40 q 1172 24 1191 -3 q 1210 -28 1206 -53 q 1203 -74 1183 -53 l 1175 -42 q 1157 -17 1116 -10 q 1074 -2 1030 -7 q 985 -12 922 -28 q 860 -44 820 -57 q 780 -70 726 -90 q 671 -109 664 -111 q 613 -128 434 -200 q 256 -271 157 -293 q 136 -298 118 -298 q 100 -298 83 -292 q 66 -286 57 -270 q 48 -253 50 -226 q 52 -202 76 -171 q 100 -140 140 -102 q 179 -63 183 -58 q 272 43 518 316 q 765 589 896 741 q 1053 912 1186 1102 q 1187 1105 1190 1110 q 1193 1116 1196 1124 q 1200 1131 1202 1135 q 1181 1136 1134 1141 q 1086 1146 1075 1145 q 937 1137 770 1114 q 604 1090 492 1069 q 379 1048 191 1010 q 178 1007 162 1028 q 147 1049 142 1068 q 138 1087 144 1092 q 189 1101 251 1114 q 313 1128 361 1138 q 409 1149 473 1162 q 537 1175 586 1184 q 635 1194 700 1204 q 764 1215 813 1220 q 862 1225 926 1230 q 989 1236 1037 1234 q 1085 1233 1147 1231 q 1192 1227 1222 1215 q 1252 1203 1262 1182 q 1273 1162 1276 1141 q 1279 1120 1266 1090 q 1252 1059 1241 1036 q 1230 1013 1205 979 q 1180 945 1166 928 q 1153 911 1129 881 q 1120 869 1115 864 q 1031 759 925 636 q 819 513 750 436 q 682 360 544 208 q 407 57 360 5 q 244 -124 198 -178 q 196 -179 192 -184 q 225 -173 284 -150 q 344 -127 361 -121 q 371 -117 392 -109 q 502 -68 564 -46 q 625 -24 721 4 q 817 33 898 48 z"},"x":{"x_min":0,"x_max":414,"ha":414,"o":"m 338 461 q 343 464 349 461 q 355 458 361 452 q 367 446 373 438 q 379 429 383 420 q 387 411 390 402 q 392 394 391 388 q 390 382 386 379 q 311 338 243 287 q 293 178 295 58 q 295 37 270 65 q 240 99 239 120 q 239 194 211 263 q -33 67 -174 -213 q -181 -227 -206 -197 q -235 -161 -228 -141 q -228 -140 -227 -139 q -83 146 165 346 q 139 381 104 407 q 89 419 78 456 q 69 485 81 483 q 86 482 92 477 q 153 431 195 369 q 263 420 338 461 z"},"v":{"x_min":0,"x_max":427,"ha":427,"o":"m 485 411 q 494 420 498 400 q 504 370 486 354 q 464 333 442 324 q 419 315 399 317 q 379 319 362 328 q 345 337 329 353 q 324 341 315 322 q 306 303 304 298 q 301 293 295 279 q 288 263 284 254 q 281 245 272 226 q 262 206 256 194 q 250 183 239 162 q 228 141 220 131 q 213 121 201 104 q 189 86 181 81 q 173 76 160 66 q 148 56 140 60 q 131 63 119 64 q 108 69 100 81 q 91 93 86 104 q 82 115 78 134 q 75 153 74 162 q 73 172 72 192 q 70 213 70 215 q 69 222 68 236 q 68 251 68 265 q 67 279 66 298 q 64 318 62 334 q 60 350 56 368 q 53 385 48 396 q 43 408 36 418 q 29 428 20 429 q 11 430 -1 427 q -8 424 -18 430 q -27 437 -34 448 q -42 460 -48 473 q -54 486 -54 496 q -54 505 -49 509 q -28 516 -12 516 q 5 516 20 506 q 34 496 46 484 q 57 471 66 453 q 76 435 82 419 q 89 403 94 386 q 115 307 120 226 q 120 216 122 197 q 124 178 124 169 q 166 215 169 220 q 208 283 240 350 q 246 363 256 397 q 267 431 274 446 q 266 472 268 492 q 271 513 286 517 q 302 522 316 509 q 331 496 339 478 q 347 460 349 445 q 351 426 347 406 q 377 392 420 392 q 464 392 485 411 z"},"O":{"x_min":0,"x_max":1080,"ha":1080,"o":"m 1067 1115 q 1085 1141 1130 1160 q 1169 1177 1169 1157 q 1169 1147 1155 1128 q 1086 1026 1007 932 q 1038 827 1041 718 q 1043 636 1030 549 q 1018 462 990 375 q 962 288 922 209 q 881 130 823 64 q 765 -2 697 -47 q 629 -92 542 -110 q 454 -129 358 -114 q 285 -102 231 -72 q 177 -42 146 0 q 114 42 97 98 q 80 155 78 214 q 75 274 83 344 q 91 413 106 476 q 121 540 142 609 q 95 649 72 710 q 49 771 50 838 q 51 906 69 980 q 87 1054 120 1122 q 152 1190 194 1250 q 237 1310 284 1350 q 350 1406 416 1432 q 483 1459 542 1456 q 600 1452 656 1427 q 713 1402 760 1358 q 808 1315 850 1258 q 893 1200 926 1136 q 959 1072 984 1002 q 1029 1059 1067 1115 z m 223 1176 q 189 1113 170 1044 q 150 976 154 898 q 158 820 196 764 q 225 840 262 923 q 272 947 317 975 q 365 1005 369 983 q 370 976 364 963 q 296 807 260 701 q 307 668 367 657 q 427 646 486 654 q 545 661 600 684 q 767 761 892 897 q 837 1103 680 1248 q 600 1318 514 1335 q 427 1352 350 1311 q 274 1270 223 1176 z m 398 4 q 483 -20 553 -14 q 623 -7 679 26 q 735 59 778 111 q 820 163 850 228 q 880 294 898 368 q 917 441 924 516 q 932 592 930 664 q 928 735 916 797 q 915 802 912 814 q 910 825 910 826 q 616 528 347 540 q 281 542 219 565 q 97 91 398 4 z"},"C":{"x_min":0,"x_max":1050,"ha":1050,"o":"m 1046 79 q 1056 98 1094 120 q 1131 141 1129 122 q 1129 117 1125 109 q 1073 -1 972 -112 q 870 -223 740 -304 q 610 -386 472 -407 q 333 -428 206 -359 q 154 -328 115 -282 q 76 -237 54 -186 q 32 -134 20 -71 q 8 -8 6 52 q 3 111 8 178 q 13 245 22 298 q 30 352 42 409 q 73 561 122 706 q 170 851 242 994 q 313 1137 400 1257 q 421 1286 444 1313 q 467 1340 498 1369 q 528 1398 558 1420 q 587 1441 620 1453 q 654 1465 684 1463 q 715 1461 746 1438 q 776 1416 800 1373 q 830 1320 842 1249 q 855 1178 854 1112 q 852 1047 839 965 q 826 883 812 827 q 799 771 779 700 q 773 678 732 652 q 695 628 693 644 q 693 647 694 651 q 709 703 718 738 q 727 773 740 834 q 754 896 760 942 q 767 988 770 1048 q 773 1107 768 1153 q 762 1199 746 1246 q 730 1292 703 1325 q 582 1476 407 1187 q 340 1076 258 879 q 23 314 114 -37 q 138 -129 186 -192 q 233 -254 293 -282 q 353 -309 424 -313 q 496 -317 570 -298 q 643 -278 716 -242 q 789 -205 852 -156 q 914 -106 966 -46 q 1017 15 1046 79 z"},"W":{"x_min":0,"x_max":1089,"ha":1089,"o":"m 1025 1278 q 1060 1156 1068 1023 q 1077 890 1060 759 q 1043 628 1010 503 q 976 378 926 255 q 902 196 877 142 q 852 88 802 2 q 753 -83 704 -139 q 656 -195 591 -228 q 526 -262 464 -243 q 432 -233 408 -210 q 383 -186 368 -158 q 354 -130 345 -92 q 336 -53 332 -20 q 329 13 330 56 q 330 98 332 124 q 333 150 335 183 q 345 292 367 415 q 332 364 298 326 q 265 287 228 261 q 192 235 162 233 q 131 231 105 261 q 79 291 65 356 q 56 397 52 443 q 49 489 50 530 q 51 572 58 624 q 64 677 70 716 q 77 755 90 811 q 102 867 110 900 q 119 934 133 990 q 147 1047 154 1074 q 157 1086 180 1059 q 213 1021 207 1000 q 140 741 116 476 q 116 474 116 472 q 116 469 116 468 q 116 466 116 464 q 115 461 115 459 q 115 457 114 454 q 114 451 114 450 q 114 448 114 445 q 110 404 110 384 q 109 363 114 338 q 120 314 140 316 q 159 318 194 344 q 366 488 433 703 q 443 741 445 747 q 449 761 473 731 q 503 693 499 673 q 444 480 412 281 q 386 121 383 61 q 369 -172 482 -160 q 498 -158 517 -151 q 554 -138 588 -114 q 623 -90 653 -58 q 683 -26 710 8 q 736 43 760 86 q 784 130 804 168 q 823 206 842 252 q 861 299 874 332 q 887 364 901 405 q 955 555 985 698 q 1015 842 1015 1003 q 1015 1164 975 1305 q 967 1332 979 1329 q 995 1327 1016 1296 q 1023 1286 1025 1278 z"},"A":{"x_min":0,"x_max":1304,"ha":1304,"o":"m 1536 744 q 1568 744 1544 706 q 1521 669 1484 648 q 1471 641 1461 640 q 1316 636 1206 629 q 1200 357 1203 184 q 1204 178 1203 145 q 1202 112 1202 78 q 1202 44 1204 7 q 1205 -30 1211 -56 q 1217 -82 1227 -87 q 1253 -99 1219 -141 q 1187 -180 1152 -189 q 1140 -192 1132 -188 q 1113 -179 1102 -145 q 1092 -111 1090 -82 q 1089 -52 1090 -5 q 1090 42 1089 46 q 1083 227 1090 563 q 1091 573 1092 592 q 1092 611 1092 620 q 1019 612 952 603 q 910 485 879 402 q 865 368 844 308 q 823 247 808 205 q 793 163 770 104 q 746 46 724 3 q 703 -40 672 -90 q 641 -139 608 -174 q 576 -210 534 -243 q 491 -276 443 -297 q 379 -325 310 -336 q 242 -348 174 -340 q 107 -332 52 -292 q -4 -252 -32 -182 q -53 -130 -54 -74 q -55 -18 -39 34 q -23 85 4 135 q 30 185 68 230 q 105 276 143 314 q 181 352 223 384 q 481 588 885 675 q 913 758 941 839 q 986 971 1074 1235 q 1078 1248 1086 1277 q 1095 1306 1101 1325 q 1107 1344 1118 1367 q 1130 1390 1144 1404 q 1163 1425 1196 1441 q 1231 1458 1235 1433 q 1239 1383 1238 1355 q 1236 1327 1230 1274 q 1225 1220 1224 1195 q 1214 959 1208 724 q 1359 739 1536 744 z m 581 -90 q 743 238 855 587 q 377 499 165 248 q 125 201 100 144 q 74 87 66 27 q 58 -33 78 -91 q 99 -149 149 -190 q 181 -214 218 -228 q 255 -241 294 -244 q 333 -246 372 -238 q 458 -224 500 -194 q 543 -163 581 -90 z m 1095 711 q 1099 879 1106 1046 q 1047 869 985 694 q 1044 704 1095 711 z"},"f":{"x_min":0,"x_max":363,"ha":363,"o":"m 367 342 q 371 345 377 342 q 383 340 389 334 q 395 328 401 320 q 407 312 411 302 q 415 293 418 285 q 420 277 419 270 q 418 263 414 261 q 374 237 318 225 q 261 213 218 212 q 176 210 114 211 q 232 -106 178 -298 q 154 -384 96 -426 q 41 -466 3 -427 q -24 -399 -31 -335 q -38 -284 -38 -225 q -38 -166 -34 -114 q -29 -62 -20 2 q -12 65 -4 114 q 4 162 15 227 q 26 292 33 335 q 70 589 114 842 q 118 864 143 836 q 170 805 170 783 q 170 782 170 780 q 123 510 91 294 q 179 293 246 302 q 314 311 367 342 z m 117 -250 q 177 -87 77 200 q 52 13 38 -123 q 34 -155 32 -198 q 31 -241 29 -283 q 27 -325 23 -358 q 23 -361 23 -364 l 24 -363 q 32 -347 70 -312 q 107 -277 117 -250 z"},"Q":{"x_min":0,"x_max":1229,"ha":1229,"o":"m 1320 24 q 1363 47 1361 21 q 1360 -7 1327 -44 q 1314 -58 1304 -64 q 1221 -110 1125 -120 q 1029 -131 941 -112 q 853 -92 762 -49 q 710 -93 656 -123 q 602 -153 542 -169 q 482 -185 424 -182 q 365 -179 303 -152 q 241 -125 185 -75 q 112 -10 78 64 q 45 139 50 216 q 56 293 84 368 q 113 442 166 519 q 59 694 75 899 q 85 1000 124 1096 q 162 1193 232 1276 q 302 1358 392 1400 q 475 1435 554 1430 q 632 1425 704 1385 q 777 1345 834 1287 q 892 1229 935 1158 q 1035 981 1062 780 q 1088 578 1036 382 q 985 197 861 52 q 896 36 905 32 q 969 8 1044 -4 q 1119 -16 1195 -10 q 1271 -4 1320 24 z m 183 945 q 176 781 259 640 q 434 837 654 983 q 694 1010 692 984 q 690 955 658 916 q 647 902 638 896 q 399 738 287 592 q 367 473 463 366 q 611 189 813 75 q 865 146 898 246 q 932 347 944 449 q 956 551 952 650 q 948 749 928 826 q 909 898 880 966 q 850 1034 808 1098 q 767 1163 710 1214 q 653 1265 586 1293 q 493 1330 420 1314 q 348 1299 297 1242 q 246 1184 218 1108 q 189 1031 183 945 z m 407 -45 q 582 -106 711 -23 q 570 55 454 168 q 315 298 206 454 q 165 357 174 253 q 183 150 246 70 q 310 -11 407 -45 z"},"w":{"x_min":0,"x_max":556,"ha":556,"o":"m 573 433 q 591 425 606 383 q 617 350 603 352 q 601 353 599 354 q 551 377 519 379 q 487 381 472 364 q 457 347 450 320 q 442 293 438 258 q 434 224 429 192 q 424 159 410 129 q 395 99 370 83 q 343 67 320 65 q 297 63 279 75 q 261 87 247 106 q 233 125 223 152 q 202 101 168 78 q 134 55 86 77 q 43 97 22 135 q 1 173 2 216 q 3 260 16 308 q 29 355 49 394 q 69 433 91 462 q 102 477 127 443 q 153 408 145 390 q 145 389 144 388 q 74 307 59 202 q 56 160 78 152 q 99 144 134 172 q 185 213 193 318 q 193 332 195 347 q 198 371 224 337 q 251 303 251 285 q 250 257 245 229 q 243 189 255 168 q 267 146 302 156 q 322 161 336 175 q 350 189 358 212 q 365 234 368 250 q 371 265 374 291 q 375 297 375 300 q 376 304 379 334 q 382 364 384 376 q 387 389 395 410 q 403 430 414 442 q 430 458 450 464 q 470 469 494 463 q 518 457 534 451 q 549 445 573 433 z"},"E":{"x_min":0,"x_max":1909,"ha":1909,"o":"m 1815 300 q 1838 326 1868 329 q 1886 330 1884 317 q 1883 306 1867 288 q 1677 69 1434 -89 q 1192 -247 916 -333 q 836 -359 768 -378 q 700 -396 604 -414 q 509 -432 430 -436 q 351 -439 266 -426 q 181 -413 117 -378 q 71 -353 48 -315 q 25 -277 25 -234 q 25 -192 40 -143 q 55 -94 80 -49 q 105 -4 136 40 q 168 85 197 119 q 226 153 253 179 q 547 467 1024 632 q 784 640 691 750 q 663 783 658 820 q 654 858 670 894 q 686 929 710 959 q 733 989 765 1015 q 854 1089 982 1140 q 1110 1191 1237 1212 q 1364 1233 1488 1231 q 1618 1230 1667 1193 q 1720 1155 1636 1088 q 1600 1058 1596 1080 q 1592 1102 1616 1130 q 1621 1136 1626 1140 q 1624 1138 1620 1135 q 1604 1122 1601 1120 q 1598 1119 1596 1121 q 1595 1124 1593 1126 q 1591 1127 1585 1129 q 1579 1131 1570 1131 q 1559 1132 1545 1134 q 1531 1137 1516 1140 q 1500 1144 1491 1146 q 1373 1156 1256 1136 q 794 1070 748 923 q 729 863 760 821 q 792 779 861 760 q 930 741 1006 731 q 1081 721 1170 722 q 1258 724 1308 727 q 1358 730 1395 734 q 1419 736 1405 710 q 1388 679 1357 658 q 1349 652 1343 651 q 1199 621 1062 578 q 925 535 788 476 q 652 416 526 336 q 400 255 299 159 q 261 123 228 80 q 194 36 166 -14 q 138 -63 128 -112 q 117 -160 124 -202 q 130 -244 168 -277 q 206 -310 273 -326 q 552 -390 984 -244 q 1225 -167 1436 -28 q 1648 110 1815 300 z"},"s":{"x_min":0,"x_max":395,"ha":395,"o":"m 489 484 q 512 493 510 477 q 508 454 476 422 q 464 410 455 406 q 357 369 264 322 q 283 295 284 262 q 284 228 267 200 q 247 158 209 122 q 171 85 122 68 q 74 50 27 73 q -1 87 -8 110 q -14 132 -2 158 q 11 183 26 204 q 42 224 60 242 q 94 275 132 303 q 94 346 90 384 q 85 422 114 481 q 146 540 201 578 q 256 616 323 623 q 347 626 331 596 q 313 563 284 546 q 276 541 270 541 q 216 536 188 494 q 160 451 188 404 q 204 382 225 364 q 353 434 489 484 z m 139 147 q 171 151 186 164 q 201 177 198 196 q 196 214 187 232 q 178 251 163 269 q 88 225 80 194 q 73 169 92 157 q 111 145 139 147 z"},"l":{"x_min":0,"x_max":274,"ha":274,"o":"m 269 218 q 279 238 318 259 q 353 279 352 261 q 352 256 348 248 q 333 218 320 195 q 308 172 284 138 q 261 105 239 84 q 217 64 186 50 q 156 37 126 41 q 102 45 84 58 q 65 71 53 92 q 41 114 33 134 q 25 155 20 184 q 15 214 13 232 q 11 250 9 276 q -3 443 18 622 q 40 801 85 1016 q 89 1037 128 1064 q 166 1089 170 1072 q 170 1069 169 1065 q 120 829 99 589 q 93 513 90 471 q 88 429 91 363 q 94 297 106 246 q 117 202 135 174 q 153 146 174 139 q 196 132 221 152 q 246 171 269 218 z"},"e":{"x_min":0,"x_max":362,"ha":362,"o":"m 375 297 q 408 327 425 316 q 441 306 421 279 l 408 264 q 382 240 356 219 q 331 198 293 170 q 255 143 219 127 q 183 111 145 102 q 107 94 73 106 q 39 119 14 152 q -12 185 -14 225 q -16 265 1 304 q 18 343 40 376 q 63 408 92 437 q 132 477 184 505 q 265 548 261 476 q 257 417 205 348 q 153 278 88 235 q 99 218 114 206 q 206 138 375 297 z m 101 375 q 73 336 73 287 q 88 296 118 326 q 148 356 168 390 q 189 423 176 434 q 167 441 150 428 q 133 415 121 400 q 109 386 101 375 z"},"b":{"x_min":0,"x_max":376,"ha":376,"o":"m 393 270 q 417 278 415 261 q 413 238 381 208 q 368 195 359 193 q 358 192 354 191 q 352 190 351 190 q 347 175 342 161 q 324 112 289 74 q 254 36 208 14 q 189 6 164 2 q 138 -2 112 0 q 86 1 66 14 q 47 27 45 50 q 34 145 282 234 q 281 255 278 276 q 264 364 234 383 q 224 390 214 392 q 205 395 196 392 q 188 390 181 386 q 174 383 167 374 q 160 365 155 358 q 150 352 144 340 q 138 328 135 321 q 132 314 126 301 q 121 288 119 284 q 83 201 56 115 q 51 99 16 75 q -26 45 -26 70 q -26 72 -26 75 l 134 1032 q 138 1053 177 1080 q 215 1106 219 1088 q 220 1085 219 1081 l 104 393 q 142 456 211 484 q 248 497 275 488 q 302 478 320 456 q 338 435 348 402 q 357 368 360 332 q 363 297 361 260 q 387 268 393 270 z m 263 130 q 273 149 276 170 q 216 158 169 117 q 145 89 174 85 q 206 82 241 106 q 256 117 263 130 z"},"m":{"x_min":0,"x_max":749,"ha":749,"o":"m 810 371 q 814 374 810 362 q 794 309 741 230 q 649 93 582 119 q 567 126 555 139 q 509 188 508 326 q 409 200 287 96 q 277 88 264 104 q 251 121 243 144 q 235 166 237 174 q 264 285 254 400 q 229 368 184 306 q 139 244 117 216 q 114 212 102 194 q 89 176 80 164 q 71 152 58 140 q 44 129 32 128 q 20 126 7 146 q -6 167 -12 183 q -20 209 -21 242 q -22 274 -16 310 q -10 345 -2 376 q 5 406 14 444 q 24 481 29 502 q 31 514 54 487 q 86 449 82 428 q 79 414 62 348 q 44 281 38 244 q 58 268 90 319 q 123 370 126 375 q 207 484 239 521 q 247 532 266 506 q 284 479 287 468 q 317 356 311 242 q 416 349 509 467 q 525 487 551 435 q 563 410 563 399 q 564 395 564 385 q 566 352 568 329 q 571 306 576 269 q 581 232 591 210 q 601 188 614 186 q 626 184 644 198 q 662 212 683 236 q 704 260 726 286 q 747 311 770 336 q 793 360 810 371 z"},"#":{"x_min":0,"x_max":721,"ha":721,"o":"m 670 459 q 686 462 681 446 q 673 418 640 390 q 627 378 618 376 q 578 367 437 335 q 436 194 436 163 q 435 138 392 108 q 357 83 351 95 q 351 97 351 98 q 352 171 352 316 q 337 313 309 306 q 281 299 272 297 q 266 234 261 171 q 259 150 221 123 q 183 96 177 113 q 175 117 176 122 l 190 276 q 186 275 136 263 q 87 251 62 244 q 45 240 52 259 q 63 288 94 315 q 106 325 114 327 q 129 331 157 338 q 185 345 196 348 l 204 439 l 119 417 q 110 414 106 418 q 102 421 104 428 q 105 436 106 442 q 108 448 111 453 q 131 489 171 499 l 210 510 l 227 692 q 229 714 266 741 q 304 768 311 750 q 312 747 311 742 l 293 532 l 350 547 q 349 559 349 576 q 349 592 349 604 q 349 617 348 632 q 348 648 348 661 q 347 685 389 716 q 425 742 432 730 q 432 728 432 726 q 433 709 435 570 l 605 615 q 610 616 613 616 q 616 616 618 614 q 619 611 620 608 q 621 606 620 602 q 620 599 619 596 q 618 593 617 589 q 616 585 615 583 q 614 581 613 578 q 592 543 553 532 l 436 501 q 437 430 437 407 q 577 439 670 459 z m 278 368 q 283 369 288 370 q 294 372 299 374 q 304 375 310 376 q 315 378 320 379 q 326 380 331 382 q 336 383 342 384 q 347 386 352 387 q 352 404 352 436 q 351 467 351 478 l 286 461 z"},"n":{"x_min":0,"x_max":419,"ha":419,"o":"m 442 303 q 447 321 456 322 q 469 323 457 280 q 440 215 400 182 q 360 148 309 175 q 292 184 280 198 q 268 212 261 225 q 254 238 248 259 q 243 280 241 294 q 239 307 236 332 q 232 358 231 370 q 222 362 220 359 q 195 328 144 248 q 89 161 37 73 q 26 54 2 95 q -20 131 -17 147 l 94 598 q 96 610 120 583 q 152 546 147 524 l 103 346 q 123 381 136 402 q 148 422 170 448 q 191 473 207 478 q 222 482 234 474 q 247 466 256 449 q 264 432 268 418 q 273 404 276 389 q 278 378 283 348 q 288 318 292 300 q 295 282 305 260 q 315 238 328 228 q 363 203 398 232 q 432 261 442 303 z"},"h":{"x_min":0,"x_max":415,"ha":415,"o":"m 420 209 q 432 219 455 185 q 481 146 469 130 q 468 129 467 128 q 407 79 358 68 q 309 57 278 92 q 247 126 247 207 q 247 212 251 240 q 255 267 257 286 q 259 305 256 316 q 253 321 252 327 q 245 321 236 319 q 223 315 208 298 q 192 281 182 266 q 172 250 158 225 q 143 200 140 195 q 82 113 37 24 l 29 -24 q 24 -53 -7 -8 q -25 18 -26 29 q -27 33 -27 37 l -27 38 q -26 58 -20 78 l 138 1028 q 142 1050 167 1022 q 194 991 195 969 q 195 968 194 967 l 80 284 q 121 345 160 383 q 200 421 228 420 q 249 420 265 407 q 281 394 290 374 q 300 353 306 334 q 311 314 313 295 q 314 285 310 260 q 307 234 303 210 q 299 187 300 166 q 301 145 309 140 q 313 140 317 140 q 321 139 328 143 q 336 147 342 150 q 348 154 357 160 q 366 166 372 171 q 379 176 388 182 q 396 189 401 194 q 406 198 412 203 q 418 208 420 209 z"},"z":{"x_min":0,"x_max":455,"ha":455,"o":"m 418 271 q 426 281 442 266 q 459 251 468 228 q 478 205 471 196 q 442 162 408 119 q 418 80 421 40 q 427 3 424 -48 q 422 -100 417 -155 q 412 -210 397 -267 q 382 -324 362 -372 q 342 -421 310 -460 q 277 -498 237 -515 q 189 -534 156 -523 q 123 -512 104 -480 q 84 -448 76 -406 q 68 -364 70 -322 q 72 -281 83 -251 q 120 -144 186 -38 q 253 67 346 183 q 334 208 318 220 q 302 233 283 235 q 264 237 240 237 q 216 237 189 238 q 177 239 164 254 q 152 269 146 288 q 140 306 143 317 q 147 326 155 336 q 163 346 175 358 q 187 370 191 374 q 193 376 212 400 q 232 423 252 447 q 272 471 281 479 q 267 471 179 432 q 91 392 71 381 q 64 377 55 383 q 46 389 38 400 q 31 412 24 425 q 18 438 18 448 q 18 458 23 462 q 33 468 58 483 q 84 498 102 508 q 119 518 146 532 q 174 545 195 550 q 216 555 239 557 q 262 559 281 550 q 300 542 314 524 q 325 511 332 498 q 338 485 338 472 q 339 458 339 448 q 339 437 332 423 q 325 409 322 402 q 318 394 305 378 q 292 363 288 358 q 283 352 268 336 q 252 320 248 316 q 309 307 344 256 q 360 237 372 215 q 393 242 418 271 z m 358 -88 q 371 -11 369 67 q 316 -4 268 -78 q 179 -215 140 -321 q 95 -447 170 -439 q 173 -439 177 -438 q 210 -433 240 -402 q 269 -372 288 -333 q 306 -294 322 -244 q 338 -193 345 -158 q 352 -123 358 -88 z"},"B":{"x_min":0,"x_max":1731,"ha":1731,"o":"m 1692 236 q 1713 230 1687 195 q 1661 158 1634 153 l 1624 153 q 1597 160 1559 168 q 1553 147 1547 131 q 1526 73 1490 19 q 1453 -35 1410 -79 q 1367 -123 1311 -164 q 1255 -206 1202 -238 q 1148 -271 1084 -302 q 1020 -334 967 -356 q 914 -379 853 -402 q 625 -491 383 -529 q 378 -529 368 -531 q 319 -538 289 -542 q 259 -545 212 -547 q 164 -549 125 -542 q 86 -535 55 -520 q -3 -490 -8 -442 q -13 -394 30 -339 q 72 -284 125 -232 q 178 -180 250 -128 q 323 -77 363 -50 q 403 -24 433 -6 q 663 132 922 206 l 965 520 q 941 516 922 511 q 898 506 913 533 q 930 565 958 587 q 962 590 964 591 l 976 597 l 1038 1041 q 1041 1062 1078 1089 q 1116 1116 1122 1099 q 1123 1095 1123 1090 l 1059 636 q 1101 658 1139 680 q 1177 701 1219 730 q 1261 759 1294 788 q 1326 817 1352 852 q 1379 886 1391 920 q 1403 954 1398 992 q 1394 1031 1369 1068 q 1337 1115 1296 1145 q 1254 1175 1208 1188 q 1163 1200 1112 1200 q 1061 1200 1010 1189 q 960 1178 908 1158 q 855 1139 808 1115 q 760 1091 714 1063 q 669 1035 633 1008 q 597 982 568 956 q 543 937 526 936 q 510 935 511 952 q 512 969 535 989 q 724 1158 963 1244 q 1007 1259 1055 1267 q 1103 1275 1154 1276 q 1206 1278 1255 1268 q 1304 1257 1346 1238 q 1389 1218 1423 1182 q 1457 1145 1475 1095 q 1488 1060 1488 1024 q 1489 987 1478 953 q 1466 919 1447 886 q 1428 854 1400 822 q 1372 791 1341 762 q 1310 734 1272 706 q 1234 679 1198 656 q 1163 633 1124 611 q 1194 611 1260 597 q 1326 583 1385 554 q 1444 526 1487 485 q 1530 444 1554 386 q 1578 328 1574 259 q 1634 251 1692 236 z m 1044 529 l 1002 228 q 1236 285 1476 270 q 1462 344 1420 398 q 1377 453 1317 482 q 1257 510 1188 522 q 1120 534 1044 529 z m 959 -296 q 1010 -274 1051 -256 q 1092 -237 1147 -208 q 1202 -179 1244 -151 q 1287 -123 1332 -85 q 1377 -47 1407 -8 q 1437 31 1458 80 q 1479 129 1482 180 q 1235 209 992 154 l 980 68 q 977 47 940 20 q 902 -7 896 10 q 895 13 896 19 l 912 135 q 651 66 421 -73 q 271 -164 175 -256 q 6 -418 176 -452 l 226 -459 q 518 -481 959 -296 z"},"K":{"x_min":0,"x_max":564,"ha":564,"o":"m 301 463 q 260 449 218 440 l 212 391 q 238 355 246 341 q 362 150 484 -38 q 641 -278 747 -421 q 754 -431 771 -456 q 788 -482 804 -504 q 819 -525 838 -549 q 857 -573 878 -588 q 898 -603 916 -605 q 935 -608 911 -643 q 885 -681 857 -687 l 848 -688 q 826 -685 802 -668 q 779 -651 757 -624 q 735 -597 718 -573 q 701 -549 681 -519 q 661 -489 653 -478 q 528 -307 348 -26 q 256 118 193 221 l 136 -284 q 133 -305 96 -332 q 58 -359 52 -342 q 50 -338 51 -333 l 127 332 q 123 339 116 350 q 110 361 104 370 q 99 379 94 387 q 90 395 80 412 q 70 428 66 436 q 62 443 56 457 q 50 471 50 480 q 50 488 52 500 q 54 512 62 522 q 70 533 84 544 q 110 566 123 560 q 136 553 151 546 l 237 1306 q 240 1328 277 1354 q 315 1381 321 1364 q 322 1361 322 1355 q 274 940 227 524 q 277 521 324 537 q 474 583 675 732 q 743 782 794 823 q 846 864 923 938 q 1000 1013 1046 1078 q 1091 1142 1115 1222 q 1139 1303 1117 1373 q 1110 1394 1147 1425 q 1182 1455 1198 1444 l 1202 1438 q 1215 1398 1216 1356 q 1216 1314 1204 1272 q 1192 1231 1174 1190 q 1155 1150 1126 1108 q 1098 1067 1069 1030 q 1040 993 1002 954 q 964 916 932 886 q 901 855 862 822 q 822 788 796 766 q 769 745 737 719 q 497 530 301 463 z"},"R":{"x_min":0,"x_max":1208,"ha":1208,"o":"m 1216 56 q 1249 73 1248 52 q 1246 28 1218 0 q 1210 -8 1203 -12 q 1070 -82 931 -92 q 792 -102 668 -59 q 544 -16 435 74 l 390 -323 q 388 -345 350 -371 q 313 -399 306 -381 q 305 -378 306 -372 l 364 140 q 291 216 237 306 q 228 321 241 340 q 254 360 275 373 q 296 386 310 385 q 346 384 392 384 l 437 786 q 440 808 477 835 q 515 862 521 844 q 523 841 522 836 l 471 386 q 536 388 598 394 q 661 401 730 413 q 798 425 860 444 q 921 462 980 487 q 1040 512 1088 547 q 1136 582 1174 624 q 1211 667 1233 723 q 1255 779 1258 843 q 1261 913 1236 972 q 1211 1031 1168 1072 q 1125 1112 1066 1142 q 1006 1172 944 1188 q 883 1203 818 1208 q 730 1214 642 1204 q 555 1193 471 1164 q 387 1135 316 1090 q 244 1044 186 976 q 127 909 92 827 q 84 806 46 784 q 9 763 10 783 q 10 788 14 796 q 91 980 250 1103 q 408 1226 609 1271 q 691 1289 777 1293 q 863 1297 951 1286 q 1039 1274 1120 1238 q 1200 1201 1257 1142 q 1298 1098 1320 1044 q 1342 989 1344 933 q 1345 877 1332 820 q 1318 762 1291 710 q 1264 657 1228 613 q 1163 537 1074 479 q 985 421 882 386 q 780 351 677 332 q 574 313 462 306 l 451 209 q 528 132 617 79 q 706 26 804 1 q 902 -24 1008 -11 q 1114 2 1216 56 z m 371 302 q 374 297 381 289 l 382 302 q 381 302 377 302 q 373 302 371 302 z"},"T":{"x_min":0,"x_max":818,"ha":818,"o":"m 1531 1231 q 1546 1253 1582 1267 q 1610 1278 1609 1263 q 1609 1256 1599 1241 q 1568 1194 1522 1162 q 1477 1130 1433 1112 q 1389 1095 1326 1090 q 1263 1084 1217 1084 q 1171 1085 1100 1096 q 1028 1106 990 1114 q 952 1121 883 1136 q 849 1143 833 1147 q 800 1154 676 1182 q 553 1210 473 1224 q 393 1238 313 1244 q 310 1245 296 1246 q 283 1247 274 1248 q 264 1249 248 1250 q 232 1250 220 1250 q 209 1249 194 1248 q 180 1247 170 1244 q 159 1241 150 1236 q 140 1232 134 1225 q 129 1218 126 1209 q 123 1200 122 1190 q 121 1181 122 1168 q 124 1156 126 1146 q 128 1135 132 1121 q 136 1107 139 1097 q 142 1087 148 1074 q 153 1061 156 1054 q 159 1046 164 1034 q 169 1023 170 1019 q 178 999 143 968 q 107 936 90 948 q 87 950 85 954 q 59 1018 52 1072 q 46 1126 58 1166 q 70 1205 96 1236 q 122 1268 160 1286 q 199 1304 246 1315 q 294 1326 348 1325 q 402 1324 459 1318 q 567 1303 762 1260 q 958 1217 1023 1205 q 1033 1203 1074 1195 q 1115 1187 1140 1182 q 1166 1177 1212 1171 q 1258 1165 1290 1163 q 1322 1161 1363 1162 q 1404 1164 1433 1171 q 1462 1178 1489 1194 q 1516 1209 1531 1231 z m 689 1014 q 692 1036 729 1063 q 767 1090 773 1072 q 775 1069 774 1064 l 618 -305 q 616 -327 578 -354 q 541 -381 534 -363 q 533 -360 534 -355 z"},"P":{"x_min":0,"x_max":736,"ha":736,"o":"m 872 1304 q 937 1288 994 1264 q 1050 1241 1100 1204 q 1149 1167 1176 1123 q 1204 1079 1204 1020 q 1203 961 1167 895 q 1142 848 1107 804 q 1072 759 1028 718 q 983 676 943 643 q 903 610 847 572 q 791 534 754 510 q 717 487 659 451 q 576 400 480 348 l 400 -358 q 398 -379 360 -406 q 322 -433 316 -416 q 315 -413 315 -407 l 396 303 q 310 259 243 228 q 220 217 222 233 q 226 257 258 290 q 269 302 276 305 q 340 335 403 365 l 476 1002 q 478 1023 516 1050 q 553 1077 560 1060 q 561 1056 560 1051 l 487 407 q 869 601 1046 809 q 1096 868 1110 924 q 1123 980 1105 1024 q 1087 1067 1046 1106 q 1004 1144 949 1170 q 894 1197 829 1216 q 645 1266 446 1226 q 246 1185 92 1071 q 55 1043 50 1065 q 46 1086 71 1113 q 76 1119 82 1123 q 251 1249 464 1300 q 676 1352 872 1304 z"},"t":{"x_min":0,"x_max":326,"ha":326,"o":"m 699 751 q 717 752 735 715 q 755 676 741 669 l 737 667 l 280 634 q 150 214 97 -223 q 94 -251 62 -218 q 28 -183 20 -148 q 18 -141 18 -137 q 64 251 174 626 l -5 613 q -22 612 -41 649 q -60 688 -46 696 q -44 697 -42 697 l 199 714 q 238 851 311 1086 q 316 1103 347 1068 q 386 1025 387 992 l 386 982 q 336 822 306 722 z"},"M":{"x_min":0,"x_max":1071,"ha":1071,"o":"m 1177 7 q 1195 38 1213 18 q 1234 -5 1226 -43 q 1224 -53 1220 -62 q 1204 -94 1178 -132 q 1152 -169 1118 -208 q 1083 -247 1044 -274 q 1006 -300 969 -311 q 932 -322 897 -302 q 862 -282 839 -228 q 822 -192 814 -146 q 806 -99 805 -58 q 804 -16 808 38 q 813 93 818 131 q 824 169 832 224 q 841 280 844 307 q 878 571 932 879 q 751 356 647 93 q 643 84 633 55 q 582 -96 545 -127 q 503 -163 465 -86 q 456 -68 450 -50 q 445 -31 442 -6 q 440 19 439 32 q 438 46 437 78 q 436 110 436 116 q 431 258 438 541 q 441 669 448 852 q 381 647 315 441 q 211 115 108 -212 q 103 -228 74 -195 q 37 -153 37 -123 q 37 -119 38 -116 q 141 211 246 538 q 341 836 393 994 q 398 1010 410 1056 q 421 1103 434 1138 q 446 1173 463 1195 q 475 1212 496 1188 q 516 1164 524 1144 q 534 1120 536 1092 q 537 1064 533 1020 q 529 975 528 966 q 518 733 513 555 q 506 312 507 161 q 507 99 509 47 q 546 113 549 119 q 594 228 666 423 q 843 903 1072 1589 q 1078 1607 1107 1569 q 1142 1524 1142 1496 q 1142 1494 1141 1492 q 1033 982 958 510 q 903 209 888 -97 q 883 -156 916 -206 q 938 -227 974 -211 q 1009 -195 1050 -154 q 1091 -113 1125 -70 q 1159 -26 1177 7 z"},"g":{"x_min":0,"x_max":462,"ha":462,"o":"m 482 341 q 490 348 506 330 q 523 312 530 291 q 537 270 529 259 q 514 247 475 216 q 436 185 403 158 q 370 132 340 106 q 325 -12 309 -102 q 307 -114 301 -156 q 295 -197 290 -230 q 284 -262 274 -309 q 264 -356 250 -392 q 237 -427 220 -460 q 202 -493 177 -510 q 152 -528 123 -528 q 81 -528 45 -494 q 9 -460 -10 -416 q -29 -372 -32 -332 q -37 -265 -12 -194 q 12 -124 62 -57 q 111 10 164 66 q 217 121 286 181 q 286 183 286 188 q 287 192 287 194 q 290 213 294 249 q 297 285 298 289 q 272 241 235 200 q 200 163 158 148 q 117 133 76 148 q 36 162 14 210 q 0 238 -2 280 q -3 322 8 366 q 18 411 36 452 q 53 493 80 524 q 108 555 138 567 q 159 576 178 570 q 198 563 213 552 q 228 541 242 520 q 255 499 264 480 q 272 461 280 439 q 308 513 326 589 q 330 605 357 569 q 382 536 381 521 q 372 381 356 240 q 376 257 400 276 q 423 294 446 312 q 468 330 482 341 z m 184 279 q 233 333 263 399 q 247 415 239 436 q 214 529 144 443 q 100 390 76 328 q 76 326 75 325 q 53 259 66 238 q 80 216 114 228 q 148 241 184 279 z m 157 -387 q 206 -307 230 -202 q 255 -97 271 43 q 43 -170 25 -350 q 20 -400 42 -424 q 65 -449 99 -438 q 133 -427 157 -387 z"},"j":{"x_min":0,"x_max":218,"ha":218,"o":"m 160 166 q 168 172 184 154 q 201 137 208 116 q 216 96 207 84 q 175 57 138 24 q 138 18 136 4 q 131 -40 128 -65 q 124 -90 116 -137 q 109 -184 102 -215 q 95 -246 84 -289 q 72 -332 58 -362 q 44 -393 26 -426 q 9 -459 -14 -484 q -37 -510 -64 -529 q -98 -552 -134 -558 q -170 -564 -198 -554 q -227 -545 -250 -523 q -273 -501 -286 -472 q -298 -443 -298 -406 q -298 -370 -283 -335 q -258 -274 -217 -213 q -176 -152 -120 -94 q -65 -35 -18 10 q 30 54 95 110 q 122 360 117 611 q 117 631 143 603 q 173 570 174 549 q 174 358 154 161 z m -20 -324 q 43 -186 72 -36 q -79 -171 -191 -340 q -228 -397 -256 -460 q -209 -477 -159 -471 q -113 -460 -80 -420 q -48 -381 -20 -324 z m 88 659 q 82 656 72 662 q 63 668 56 680 q 48 691 42 704 q 36 717 36 727 q 35 737 41 741 q 87 765 115 777 q 141 788 153 780 q 173 767 184 742 q 196 716 182 696 q 179 692 170 698 q 169 698 167 697 q 165 696 164 696 q 151 691 132 681 q 110 671 88 659 z"},"i":{"x_min":0,"x_max":257,"ha":257,"o":"m 261 246 q 269 261 294 230 q 323 193 316 174 q 315 173 315 172 q 293 132 257 100 q 221 67 180 50 q 139 32 98 44 q 56 57 27 105 q 10 133 4 168 q -3 203 -1 235 q 1 267 10 305 q 20 343 30 372 q 40 401 55 435 q 61 449 85 418 q 115 381 108 360 q 58 251 57 131 q 57 131 57 130 q 57 129 57 129 l 63 126 q 69 127 84 124 q 99 122 106 122 q 155 130 192 163 q 234 198 261 246 z m 71 492 q 64 489 55 495 q 46 501 38 512 q 30 524 24 537 q 18 550 18 560 q 18 570 23 574 q 69 598 97 610 q 124 621 135 613 q 155 600 167 574 q 179 549 165 529 q 161 525 152 531 q 151 530 149 530 q 147 529 146 528 q 134 523 114 514 q 92 503 71 492 z"},"y":{"x_min":0,"x_max":406,"ha":406,"o":"m 351 515 q 358 529 382 499 q 411 461 405 441 q 374 373 350 298 q 327 224 310 140 q 294 56 284 -12 q 273 -80 264 -178 q 256 -275 252 -330 q 249 -386 243 -489 q 242 -518 241 -532 q 240 -553 215 -526 q 186 -492 185 -471 q 194 -310 198 -244 q 202 -178 216 -46 q 231 87 251 189 q 128 43 27 89 q 5 99 -9 116 q -23 132 -28 154 q -33 177 -34 199 q -36 221 -29 250 q -22 280 -17 302 q -12 323 0 353 q 12 383 18 398 q 24 413 35 438 q 37 442 38 444 q 39 446 40 449 q 41 452 42 454 q 48 469 73 438 q 103 400 96 380 q 68 317 48 251 q 39 223 32 194 q 31 180 37 174 q 43 169 49 171 l 56 173 q 101 185 138 216 q 259 303 351 515 z"},"@":{"x_min":0,"x_max":722,"ha":722,"o":"m 265 748 q 313 758 362 750 q 412 742 454 720 q 496 697 535 663 q 574 629 601 586 q 628 544 648 497 q 667 450 670 400 q 674 351 666 304 q 652 233 604 220 q 555 206 508 258 q 462 310 430 371 q 407 261 350 223 q 323 205 298 212 q 273 220 254 240 q 236 260 225 289 q 204 342 232 442 q 262 550 316 584 q 368 616 419 557 q 435 539 439 504 q 441 486 434 487 q 428 488 417 501 q 413 505 410 507 q 430 486 438 457 q 440 438 452 408 q 463 378 481 350 q 499 321 524 306 q 550 292 575 303 q 612 321 619 367 q 626 413 610 462 q 594 512 570 555 q 546 598 526 616 q 479 653 422 666 q 364 678 306 664 q 249 650 204 612 q 158 574 134 520 q 90 416 111 324 q 132 232 219 163 q 306 95 390 110 q 474 125 534 217 q 544 232 568 200 q 596 165 589 145 q 589 144 588 143 q 547 81 496 52 q 445 24 394 28 q 343 31 292 57 q 240 83 196 125 q 151 167 116 220 q 87 262 70 315 q 54 368 50 422 q 47 476 58 530 q 70 583 95 628 q 120 672 164 704 q 207 736 265 748 z m 278 297 q 302 273 336 355 q 370 435 381 508 q 382 510 382 513 q 353 505 322 458 q 292 410 278 360 q 264 311 278 297 z"},"p":{"x_min":0,"x_max":354,"ha":354,"o":"m 315 468 q 343 400 330 327 q 331 322 328 317 q 327 309 326 307 q 321 281 308 250 q 296 218 276 184 q 256 151 232 130 q 207 110 176 106 q 146 101 113 127 q 73 158 67 194 q 61 229 82 260 q 102 290 136 319 q 171 348 208 367 q 244 386 274 395 q 278 416 278 437 q 278 453 274 468 q 271 470 271 471 q 267 475 263 480 q 259 484 258 486 q 256 487 252 488 q 248 489 240 489 q 215 486 196 470 q 128 418 85 345 q 82 340 77 341 q -32 -112 -91 -574 q -94 -596 -119 -568 q -147 -537 -147 -515 q -147 -514 -147 -513 q -103 -192 -52 75 q -2 342 70 589 q 74 602 98 575 q 116 554 122 534 q 182 588 231 567 q 258 553 274 527 q 285 517 293 506 q 306 488 315 468 z m 146 194 l 145 194 q 177 203 201 225 q 225 247 238 277 q 178 250 146 194 z"},"X":{"x_min":0,"x_max":1043,"ha":1043,"o":"m 1274 1228 q 1280 1231 1290 1225 q 1299 1219 1306 1208 q 1314 1197 1320 1184 q 1326 1171 1326 1160 q 1327 1150 1321 1146 q 1284 1124 1244 1095 q 1205 1066 1174 1038 q 1142 1011 1103 974 q 1064 936 1038 909 q 1011 882 971 840 q 931 799 909 776 q 792 657 677 537 q 703 408 732 306 q 745 260 753 232 q 761 205 778 157 q 795 109 810 78 q 824 47 848 6 q 871 -34 896 -60 q 920 -87 954 -110 q 987 -134 1024 -146 q 1045 -152 1020 -187 q 994 -223 968 -228 q 961 -230 957 -228 q 921 -217 888 -198 q 856 -178 830 -150 q 803 -123 780 -94 q 756 -64 736 -24 q 717 15 702 50 q 686 84 672 130 q 657 177 647 212 q 637 247 626 296 q 616 345 610 376 q 604 406 596 451 q 454 300 313 149 q -111 -306 -238 -437 q -249 -449 -290 -498 q -331 -546 -364 -583 q -398 -620 -442 -652 q -485 -685 -514 -685 q -533 -685 -551 -646 q -569 -607 -555 -602 l -552 -601 q -543 -601 -532 -595 q -520 -589 -508 -578 q -497 -568 -487 -558 q -477 -548 -466 -537 q -456 -526 -452 -522 q -389 -463 -260 -329 q -176 -242 -92 -152 q -8 -63 122 77 q 253 217 288 255 q 431 409 575 561 q 566 614 551 704 q 536 793 522 869 q 508 945 493 1011 q 492 1015 488 1034 q 484 1054 482 1062 q 480 1069 476 1086 q 471 1104 468 1114 q 464 1123 458 1137 q 453 1151 446 1162 q 439 1172 431 1182 q 392 1231 342 1239 q 293 1247 248 1225 q 204 1203 158 1160 q 111 1117 80 1076 q 48 1035 22 994 q 9 972 -27 958 q -56 946 -55 963 q -54 971 -45 985 q -32 1007 -17 1028 q -2 1050 18 1076 q 37 1103 58 1128 q 78 1152 102 1178 q 125 1203 150 1224 q 175 1246 202 1265 q 228 1284 256 1298 q 284 1311 312 1319 q 340 1327 370 1326 q 400 1326 428 1318 q 453 1310 474 1294 q 496 1277 512 1258 q 527 1239 540 1211 q 553 1183 560 1160 q 568 1136 576 1102 q 583 1069 587 1047 q 591 1025 596 992 q 601 959 604 944 q 612 899 630 799 q 647 699 656 646 q 768 763 882 878 q 903 899 952 950 q 1002 1002 1031 1030 q 1060 1059 1104 1100 q 1148 1141 1190 1172 q 1232 1203 1274 1228 z"},"Y":{"x_min":0,"x_max":1339,"ha":1339,"o":"m 1269 264 q 1286 267 1305 230 q 1325 191 1310 182 q 1309 181 1307 181 q 1190 160 1077 133 q 968 -153 751 -370 q 722 -398 680 -431 q 637 -464 582 -499 q 526 -534 468 -562 q 410 -591 350 -607 q 290 -623 238 -622 q 186 -620 142 -592 q 97 -564 71 -508 q 53 -468 50 -428 q 47 -387 59 -350 q 71 -313 92 -276 q 113 -240 144 -208 q 176 -175 211 -144 q 246 -114 287 -86 q 328 -58 367 -35 q 406 -12 448 9 q 489 30 522 45 q 555 60 586 73 q 805 161 1036 215 q 1165 540 1201 887 q 1122 739 1016 610 q 992 581 962 550 q 933 520 892 482 q 851 445 808 418 q 764 390 720 370 q 675 351 630 352 q 585 354 549 378 q 521 397 506 430 q 491 462 488 494 q 484 526 490 571 q 496 616 503 646 q 510 676 522 720 q 534 765 537 780 q 539 790 546 811 q 552 832 558 850 q 563 867 568 890 q 573 913 572 928 q 572 943 568 958 q 564 966 558 970 q 552 975 545 976 q 538 978 528 978 q 519 977 511 975 q 503 973 492 969 q 481 965 474 962 q 466 959 455 954 q 444 950 439 949 q 328 902 231 831 q 217 822 195 857 q 169 896 181 911 l 183 913 q 189 917 201 926 q 230 945 247 956 q 264 968 298 989 q 332 1010 356 1022 q 380 1033 414 1046 q 447 1058 472 1060 q 498 1063 524 1058 q 551 1052 572 1036 q 599 1015 612 982 q 626 948 628 914 q 629 881 622 837 q 616 793 608 760 q 599 728 588 686 q 576 644 572 626 q 572 625 566 602 q 560 580 555 557 q 550 534 546 508 q 541 481 541 462 q 541 442 547 437 q 550 435 570 438 q 590 442 614 448 q 639 453 660 459 q 682 465 690 468 q 834 522 983 710 q 1127 894 1219 1108 q 1227 1128 1255 1083 q 1274 1053 1274 1040 q 1259 743 1183 456 q 1152 338 1116 234 q 1196 251 1269 264 z m 640 -345 q 865 -156 989 111 q 733 46 496 -70 q 448 -94 404 -120 q 361 -145 310 -182 q 258 -220 220 -258 q 181 -296 152 -344 q 123 -393 115 -442 q 101 -538 204 -533 q 319 -528 522 -418 q 604 -374 640 -345 z"},"c":{"x_min":0,"x_max":353,"ha":353,"o":"m 373 291 q 388 289 390 278 q 391 267 381 255 q 334 186 267 138 q 200 89 120 66 q 80 56 54 63 q 28 70 14 86 q -1 102 -6 130 q -10 157 -8 186 q -6 214 2 247 q 58 474 163 536 q 258 593 313 409 q 320 388 283 357 q 248 327 233 338 q 230 340 228 344 q 212 416 156 465 q 150 456 148 452 q 139 436 127 410 q 102 355 87 296 q 82 276 79 260 q 76 245 74 222 q 73 199 78 184 q 82 169 94 156 q 107 144 129 142 q 163 139 204 159 q 245 179 277 207 q 285 214 304 234 q 312 243 318 251 q 317 250 314 245 q 349 296 373 291 z"},"!":{"x_min":0,"x_max":354,"ha":354,"o":"m 254 1040 q 262 1059 298 1081 q 335 1104 336 1084 q 336 1079 333 1070 q 203 736 179 273 q 178 251 141 224 q 103 196 95 215 q 94 218 94 224 q 109 644 254 1040 z m 146 168 q 155 175 170 175 q 186 175 182 159 q 169 120 180 81 q 187 66 170 42 q 152 19 129 6 q 106 -6 100 5 q 80 57 98 109 q 110 148 146 168 z"},"r":{"x_min":0,"x_max":439,"ha":439,"o":"m 394 206 q 413 236 445 253 q 465 264 465 253 q 464 246 453 230 q 432 198 418 180 q 405 161 382 134 q 359 106 335 88 q 311 70 286 60 q 243 43 224 66 q 204 90 209 136 q 210 149 217 178 q 224 206 226 220 q 228 235 224 263 q 220 275 212 286 q 204 296 193 303 q 182 310 171 316 q 160 321 147 328 q 134 336 125 343 l 125 344 q 107 328 91 314 q 54 285 50 307 q 46 329 70 356 q 75 362 81 367 q 85 370 94 378 q 51 438 58 511 q 61 547 88 596 q 116 644 154 666 q 191 688 229 645 q 295 560 198 426 q 212 413 237 397 q 262 381 276 371 q 290 361 301 338 q 312 316 310 284 q 309 269 300 232 q 291 196 292 177 q 296 111 349 154 q 377 177 394 206 z m 160 476 q 169 502 165 528 q 158 550 145 568 q 142 548 142 547 q 143 510 160 476 z"}," ":{"x_min":0,"x_max":251,"ha":251,"o":""},"I":{"x_min":0,"x_max":536,"ha":536,"o":"m 379 1192 q 434 1214 472 1215 q 509 1216 528 1198 q 546 1180 556 1148 q 565 1116 564 1074 q 564 1031 562 982 q 523 265 240 -395 q 231 -415 194 -437 q 157 -459 158 -438 q 158 -433 161 -425 q 368 68 444 598 q 448 625 458 684 q 469 744 475 786 q 481 827 487 881 q 493 935 492 982 q 490 1029 481 1068 q 477 1089 470 1104 q 462 1118 451 1124 q 440 1131 428 1134 q 417 1136 401 1132 q 385 1129 370 1124 q 355 1118 335 1109 q 188 1039 65 933 q 28 903 24 926 q 20 947 44 975 q 49 981 55 985 q 202 1112 379 1192 z"},"H":{"x_min":0,"x_max":971,"ha":971,"o":"m 1156 712 q 1179 722 1177 706 q 1174 683 1142 650 q 1131 638 1122 634 q 1020 592 887 534 q 854 385 786 80 q 717 -226 682 -382 q 677 -403 638 -430 q 601 -455 597 -439 q 597 -436 598 -431 q 621 -326 650 -198 q 678 -70 701 33 q 724 136 754 266 q 783 397 805 498 q 624 418 355 293 q 316 123 278 -48 q 273 -70 234 -96 q 197 -122 193 -105 q 192 -102 193 -98 q 233 79 272 255 q 131 190 -10 125 q -33 115 -31 130 q -28 154 4 188 q 15 199 23 203 q 155 264 288 325 q 383 751 437 1002 q 441 1024 480 1051 q 518 1076 522 1059 q 522 1056 521 1052 q 468 799 370 363 q 643 489 821 568 q 896 903 967 1238 q 971 1260 1010 1287 q 1048 1312 1052 1295 q 1052 1292 1051 1288 q 978 945 902 604 q 1029 659 1156 712 z"},"D":{"x_min":0,"x_max":1594,"ha":1594,"o":"m 1601 31 q 1612 20 1597 -4 q 1582 -27 1558 -42 q 1533 -57 1522 -46 q 1402 63 1255 129 q 1090 -64 874 -198 q 659 -332 413 -394 q 366 -406 332 -412 q 299 -418 250 -423 q 202 -428 160 -422 q 118 -416 86 -399 q 52 -381 36 -356 q 19 -331 21 -302 q 23 -274 34 -244 q 46 -213 72 -180 q 97 -147 124 -116 q 150 -86 186 -54 q 221 -22 250 2 q 278 27 312 52 q 345 77 363 90 q 381 103 398 116 q 564 233 762 274 l 830 891 q 833 912 870 939 q 908 966 914 949 q 915 945 915 940 l 842 287 q 1064 312 1272 234 q 1413 442 1435 692 q 1438 751 1435 808 q 1432 866 1414 922 q 1397 977 1369 1022 q 1341 1068 1295 1104 q 1249 1140 1190 1159 q 1136 1176 1076 1178 q 1017 1181 962 1172 q 907 1163 847 1142 q 787 1122 736 1098 q 684 1074 628 1040 q 572 1007 529 978 q 486 948 438 913 q 401 885 396 907 q 392 929 417 955 q 422 961 428 966 q 481 1005 530 1038 q 578 1071 641 1108 q 704 1146 762 1174 q 820 1201 888 1224 q 955 1247 1016 1256 q 1078 1266 1145 1262 q 1212 1258 1272 1237 q 1343 1212 1394 1164 q 1445 1117 1472 1058 q 1500 1000 1512 929 q 1524 858 1522 790 q 1520 722 1508 652 q 1463 413 1322 215 q 1477 146 1601 31 z m 920 -110 q 1084 -3 1209 149 q 1174 163 1147 172 q 995 224 834 214 l 816 55 q 814 33 776 7 q 739 -21 732 -3 q 731 0 732 5 l 754 204 q 516 157 327 4 q 206 -89 150 -174 q 55 -316 233 -336 q 237 -336 241 -337 q 324 -344 417 -328 q 510 -312 599 -277 q 688 -242 766 -201 q 844 -160 920 -110 z"},"F":{"x_min":0,"x_max":1418,"ha":1418,"o":"m 1346 441 q 1363 442 1381 405 q 1401 366 1387 359 l 1383 358 l 1091 347 q 1064 256 1042 163 q 956 -170 950 -513 q 950 -534 925 -506 q 895 -473 894 -452 q 898 -174 958 97 q 981 217 1016 345 l 796 337 q 779 336 761 373 q 742 412 755 420 q 757 420 759 421 l 1040 430 q 1075 546 1107 637 q 1149 753 1231 937 q 1232 940 1244 965 q 1255 990 1258 998 q 1262 1007 1268 1029 q 1275 1051 1274 1064 q 1273 1076 1267 1092 q 1261 1109 1248 1122 q 1232 1138 1203 1147 q 1174 1156 1150 1159 q 1125 1162 1083 1160 q 1041 1159 1026 1158 q 1012 1157 975 1153 q 784 1132 604 1064 q 434 1005 285 907 q 224 867 172 816 q 156 800 146 790 q 137 781 130 770 q 124 760 120 755 q 117 750 120 743 q 123 736 126 733 q 130 730 143 724 q 156 719 166 716 q 176 713 200 706 q 212 702 218 700 q 239 694 255 648 q 266 615 256 617 q 254 617 233 624 q 212 630 206 632 q 201 634 181 640 q 161 647 153 651 q 145 655 128 664 q 111 672 104 679 q 96 686 84 696 q 72 707 66 717 q 61 727 56 740 q 51 754 50 768 q 49 790 57 812 q 65 835 82 856 q 100 878 116 896 q 133 913 160 933 q 186 953 200 963 q 214 973 237 989 q 282 1019 352 1056 q 423 1093 516 1132 q 610 1170 708 1202 q 806 1233 906 1247 q 1005 1261 1088 1253 q 1171 1245 1234 1201 q 1297 1157 1321 1077 q 1329 1053 1330 1028 q 1330 1003 1328 984 q 1325 965 1316 937 q 1306 909 1300 894 q 1293 880 1278 850 q 1264 819 1259 807 q 1178 624 1117 433 z"},"k":{"x_min":0,"x_max":419,"ha":419,"o":"m 397 174 q 403 195 442 221 q 481 247 483 229 q 483 227 482 223 q 473 185 458 148 q 442 112 420 76 q 398 39 367 12 q 336 -16 300 -27 q 277 -32 258 -33 q 239 -34 220 -26 q 202 -17 187 -6 q 172 5 158 22 q 144 40 132 57 q 121 74 110 96 q 100 117 92 136 q 84 154 77 175 q 63 148 52 120 l 40 48 q 37 32 3 1 q -39 -36 -45 -9 q -50 36 -32 77 l 120 987 q 124 1009 163 1036 q 201 1062 205 1044 q 206 1041 205 1037 l 79 284 q 101 322 119 350 q 137 378 163 412 q 189 447 220 471 q 250 495 281 507 q 331 523 352 508 q 374 494 372 461 q 369 428 345 393 q 271 296 162 243 q 204 139 262 89 q 341 21 385 132 q 392 151 397 174 z m 157 311 q 155 307 147 295 q 201 317 244 356 q 313 434 282 430 q 257 427 216 394 q 210 389 206 385 q 178 351 157 311 z"},"u":{"x_min":0,"x_max":427,"ha":427,"o":"m 457 241 q 467 237 466 227 q 464 217 460 209 q 455 201 449 194 q 435 179 420 163 q 404 147 377 123 q 350 99 326 86 q 302 72 278 66 q 254 59 237 74 q 220 90 214 126 q 208 160 211 195 q 176 145 127 109 q 105 94 82 86 q 58 77 32 82 q 7 88 -5 113 q -19 139 -20 181 q -20 223 -14 254 q -9 285 4 336 q 16 388 18 400 q 23 421 62 448 q 99 474 103 457 q 104 453 103 449 q 100 434 93 403 q 86 372 82 355 q 79 338 74 306 q 69 275 70 258 q 70 240 71 210 q 76 176 95 167 q 114 158 138 183 q 148 193 157 204 q 166 216 174 231 q 183 246 190 256 q 196 267 204 286 q 213 306 217 314 q 221 321 230 344 q 239 367 241 372 q 243 377 252 402 q 262 427 263 429 q 269 446 308 470 q 348 495 346 473 q 345 471 345 469 q 319 379 305 286 q 304 281 301 266 q 298 251 297 241 q 296 231 295 218 q 294 204 296 193 q 298 182 302 174 q 309 162 316 156 q 323 150 330 150 q 338 151 344 154 q 351 156 359 164 q 367 172 372 177 q 377 182 386 192 q 394 202 397 206 q 437 251 457 241 z"},"U":{"x_min":0,"x_max":1045,"ha":1045,"o":"m 1278 4 q 1292 27 1328 41 q 1357 53 1355 36 q 1355 28 1346 14 q 1330 -12 1314 -36 q 1299 -59 1276 -90 q 1253 -122 1230 -148 q 1206 -174 1178 -202 q 1150 -229 1121 -247 q 1092 -265 1061 -277 q 1030 -289 998 -288 q 965 -288 933 -274 q 913 -265 896 -252 q 879 -238 868 -218 q 856 -198 847 -180 q 838 -161 832 -134 q 826 -106 822 -87 q 819 -68 818 -36 q 816 -5 815 10 q 814 25 814 56 q 814 88 813 96 q 812 154 813 228 q 789 148 763 80 q 737 13 700 -56 q 664 -126 616 -184 q 567 -242 509 -283 q 453 -322 388 -338 q 322 -355 261 -348 q 200 -341 150 -301 q 99 -261 76 -192 q 61 -145 54 -92 q 48 -40 50 26 q 53 91 56 127 q 60 163 69 237 q 81 349 104 484 q 127 618 144 705 q 161 792 193 949 q 199 976 202 990 q 206 1011 245 1038 q 283 1063 286 1047 q 287 1044 286 1039 q 274 981 254 892 q 234 803 220 736 q 205 669 188 583 q 170 497 159 422 q 148 348 140 268 q 133 188 134 110 q 135 31 144 -42 q 151 -101 178 -150 q 205 -199 246 -229 q 287 -259 334 -270 q 382 -280 436 -262 q 490 -244 538 -197 q 573 -163 604 -117 q 636 -71 658 -27 q 681 17 702 78 q 724 140 737 184 q 750 228 766 297 q 781 366 788 403 q 795 440 808 508 q 813 536 816 550 q 829 620 842 705 q 856 841 877 999 q 880 1019 917 1047 q 955 1076 961 1056 q 962 1053 962 1048 q 952 921 929 769 q 913 609 905 448 q 888 234 907 20 q 910 -56 939 -126 q 965 -176 1003 -190 q 1041 -203 1078 -188 q 1116 -173 1156 -140 q 1195 -106 1226 -69 q 1256 -32 1278 4 z"},"o":{"x_min":0,"x_max":536,"ha":536,"o":"m 579 479 q 602 489 600 473 q 597 450 566 417 q 554 405 546 402 q 455 362 359 334 q 390 252 352 178 q 315 104 232 65 q 189 45 146 50 q 103 54 68 75 q 33 96 8 134 q -17 171 -24 216 q -34 279 1 342 q 36 405 92 458 q 96 461 103 458 q 129 497 173 510 q 194 514 216 506 q 238 498 258 480 q 278 463 295 442 q 312 421 327 397 q 458 423 579 479 z m 286 395 q 272 414 250 422 q 228 429 206 424 q 240 393 286 395 z m 172 141 q 225 162 270 208 q 316 254 321 306 q 321 315 320 324 q 167 289 118 354 q 80 314 54 264 q 42 241 36 224 q 29 206 31 183 q 33 160 51 147 q 110 113 172 141 z"},"N":{"x_min":0,"x_max":1228,"ha":1228,"o":"m 1171 1556 q 1171 1581 1201 1550 q 1236 1514 1243 1483 q 1244 1479 1244 1475 q 1242 1204 1209 888 q 1209 886 1208 881 q 1202 824 1198 785 q 1193 746 1181 658 q 1169 571 1156 506 q 1142 441 1122 348 q 1101 255 1075 188 q 1049 122 1017 48 q 985 -25 944 -69 q 903 -113 856 -144 q 808 -174 748 -171 q 689 -168 624 -133 q 573 -105 534 -62 q 494 -18 469 37 q 444 92 428 148 q 411 204 402 270 q 394 337 390 389 q 387 441 386 501 q 384 608 393 730 q 314 486 306 462 q 202 136 99 -191 q 94 -207 65 -174 q 28 -132 28 -102 q 28 -98 29 -95 q 132 232 237 559 q 332 856 384 1014 q 389 1031 400 1077 q 412 1123 424 1158 q 437 1193 454 1216 q 466 1232 486 1208 q 507 1184 516 1164 q 523 1145 524 1120 q 525 1095 522 1076 q 518 1056 512 1027 q 505 998 503 984 q 471 776 461 565 q 431 -139 748 -49 q 786 -38 820 -14 q 854 11 878 39 q 903 67 927 110 q 951 152 966 186 q 981 219 998 270 q 1014 320 1022 348 q 1030 375 1042 422 q 1167 890 1171 1556 z"},"G":{"x_min":0,"x_max":929,"ha":929,"o":"m 867 138 q 890 148 888 132 q 885 109 853 76 q 842 64 834 60 q 829 58 824 56 q 819 53 814 50 q 808 48 804 46 q 783 -28 760 -90 q 738 -152 707 -219 q 676 -286 634 -344 q 593 -402 543 -447 q 514 -473 471 -496 q 428 -519 377 -533 q 326 -547 278 -548 q 229 -549 186 -528 q 143 -506 119 -462 q 108 -442 108 -420 q 107 -397 114 -376 q 120 -356 136 -332 q 152 -309 168 -290 q 185 -272 210 -250 q 236 -227 254 -212 q 273 -198 301 -178 q 329 -159 342 -150 q 356 -141 378 -126 q 381 -124 383 -123 q 385 -122 388 -120 q 390 -119 392 -117 q 562 -8 744 80 q 748 99 770 203 q 780 249 788 295 q 707 149 597 50 q 487 -50 360 -69 q 295 -78 242 -60 q 189 -43 155 -6 q 121 32 97 84 q 73 137 63 196 q 53 255 50 316 q 48 378 54 434 q 61 489 73 534 q 106 655 165 771 q 224 887 314 990 q 404 1094 508 1153 q 550 1177 592 1186 q 634 1194 670 1188 q 705 1182 738 1164 q 772 1147 796 1118 q 821 1090 842 1056 q 862 1021 872 980 q 883 939 886 896 q 890 852 881 807 q 878 785 839 758 q 801 733 797 750 q 796 753 797 758 q 808 823 790 897 q 772 971 731 1026 q 690 1082 630 1104 q 569 1126 496 1086 q 434 1053 378 994 q 322 936 280 866 q 239 797 208 726 q 177 654 158 583 q 138 512 132 438 q 126 363 136 286 q 146 210 184 144 q 223 78 288 40 q 356 2 420 11 q 484 20 542 66 q 599 112 648 178 q 696 243 734 319 q 771 395 795 464 q 819 533 828 585 q 832 606 868 633 q 907 662 913 643 q 913 639 913 635 q 890 372 823 117 q 829 120 844 127 q 859 134 867 138 z m 498 -424 q 543 -392 580 -344 q 617 -295 644 -235 q 672 -175 692 -117 q 711 -59 728 10 q 547 -76 380 -185 q 373 -189 356 -200 q 338 -211 326 -220 q 313 -228 294 -241 q 275 -254 262 -266 q 250 -277 236 -292 q 221 -306 214 -320 q 206 -333 202 -348 q 197 -363 201 -378 q 205 -393 216 -407 q 245 -443 300 -456 q 354 -468 408 -458 q 463 -448 498 -424 z"},"q":{"x_min":0,"x_max":342,"ha":342,"o":"m 288 514 q 291 527 317 497 q 345 463 343 446 q 337 402 324 360 q 291 209 274 129 q 258 49 234 -82 q 210 -213 198 -324 q 187 -436 186 -544 q 185 -564 160 -537 q 130 -503 130 -482 q 141 -153 213 168 q 189 143 161 124 q 113 92 73 86 q 33 80 6 106 q -22 132 -27 191 q -30 221 -18 284 q -6 347 16 412 q 37 476 72 522 q 106 567 142 561 q 213 550 249 373 q 261 400 269 428 q 279 471 288 514 z m 67 181 q 176 227 229 332 q 211 351 202 376 q 194 427 174 440 q 155 454 134 434 q 112 414 93 372 q 63 307 45 237 q 40 219 33 195 q 26 171 28 168 q 29 166 48 173 q 59 178 67 181 z"},"d":{"x_min":0,"x_max":438,"ha":438,"o":"m 446 270 q 451 284 476 254 q 506 216 500 196 q 498 192 494 182 q 489 168 486 160 q 482 151 475 134 q 468 117 462 106 q 457 95 448 78 q 440 62 432 52 q 425 41 416 28 q 406 16 397 10 q 388 3 378 -2 q 367 -7 356 -6 q 346 -5 335 0 q 277 31 250 157 q 246 174 244 192 q 157 -22 69 17 q 24 37 2 79 q -21 121 -21 171 q -21 221 -12 267 q -3 313 13 353 q 24 379 32 398 q 41 417 54 440 q 66 463 78 477 q 89 491 104 502 q 120 514 136 514 q 151 515 170 506 q 189 497 209 475 q 225 458 230 424 q 233 405 224 406 q 218 407 206 419 q 180 439 156 424 q 131 409 106 364 q 82 318 68 280 q 53 243 46 219 q 42 202 40 183 q 38 164 40 142 q 42 120 57 108 q 72 96 98 99 q 143 105 187 236 q 195 262 202 291 q 210 320 220 360 q 229 399 233 415 q 302 695 384 1055 q 386 1067 410 1040 q 442 1003 437 981 q 434 966 412 846 q 389 725 358 588 q 328 452 295 342 q 287 255 296 169 q 303 100 315 88 q 328 72 353 98 q 415 175 446 270 z"}}}
